<mxfile host="Electron" modified="2023-05-27T16:13:10.009Z" agent="Mozilla/5.0 (Macintosh; Intel Mac OS X 10_15_7) AppleWebKit/537.36 (KHTML, like Gecko) draw.io/21.2.1 Chrome/112.0.5615.87 Electron/24.1.2 Safari/537.36" etag="7UJoGFY7zrqMtkHk8TQ_" version="21.2.1" type="device">
  <diagram name="Page-1" id="H1nZVYqxkzLZFgEqRADx">
    <mxGraphModel dx="8800" dy="11800" grid="1" gridSize="10" guides="1" tooltips="1" connect="1" arrows="1" fold="1" page="1" pageScale="1" pageWidth="850" pageHeight="1100" math="0" shadow="0">
      <root>
        <mxCell id="0" />
        <mxCell id="1" parent="0" />
        <mxCell id="AsBp8XiL8Dx4Y6rQVwFH-4145" value="R, W: 135, H: 116, ORDER: 15, GC: {46, 18, 20, 13, 5, 51, 3, 17, 8, 15, 6, 9, 14, 70, 65} " style="text;html=1;strokeColor=none;fillColor=none;align=center;verticalAlign=middle;whiteSpace=wrap;rounded=0;fontSize=32;" parent="1" vertex="1">
          <mxGeometry x="50" width="1350" height="30" as="geometry" />
        </mxCell>
        <mxCell id="AsBp8XiL8Dx4Y6rQVwFH-8237" value="R, W: 135, H: 94, ORDER: 18, GC: {42, 23, 27, 19, 4, 43, 15, 16, 52, 20, 3, 1, 2, 7, 5, 51, 12, 32} " style="text;html=1;strokeColor=none;fillColor=none;align=center;verticalAlign=middle;whiteSpace=wrap;rounded=0;fontSize=32;" parent="1" vertex="1">
          <mxGeometry x="40" y="3820" width="1350" height="30" as="geometry" />
        </mxCell>
        <mxCell id="AsBp8XiL8Dx4Y6rQVwFH-11309" value="R, W: 135, H: 105, ORDER: 19, GC: {49, 24, 30, 18, 6, 32, 12, 22, 2, 7, 23, 34, 13, 9, 4, 5, 56, 40, 39} " style="text;html=1;strokeColor=none;fillColor=none;align=center;verticalAlign=middle;whiteSpace=wrap;rounded=0;fontSize=32;" parent="1" vertex="1">
          <mxGeometry x="40" y="4860" width="1350" height="30" as="geometry" />
        </mxCell>
        <mxCell id="AsBp8XiL8Dx4Y6rQVwFH-46250" value="R, W: 135, H: 128, ORDER: 24, GC: {41, 46, 36, 5, 48, 31, 20, 18, 30, 27, 11, 10, 1, 9, 22, 6, 13, 51, 16, 35, 14, 7, 28, 21} " style="text;html=1;strokeColor=none;fillColor=none;align=center;verticalAlign=middle;whiteSpace=wrap;rounded=0;fontSize=32;" parent="1" vertex="1">
          <mxGeometry x="50" y="7270" width="1350" height="30" as="geometry" />
        </mxCell>
        <mxCell id="MUZDcf-XtrYGZtJUf5Co-1" value="" style="group;flipV=1;" vertex="1" connectable="0" parent="1">
          <mxGeometry x="50" y="50" width="1350" height="1160" as="geometry" />
        </mxCell>
        <mxCell id="761dnnyQ54j-Cl0NHfQN-4146" value="46" style="rounded=0;whiteSpace=wrap;html=1;fontSize=32;" parent="MUZDcf-XtrYGZtJUf5Co-1" vertex="1">
          <mxGeometry y="700" width="460" height="460" as="geometry" />
        </mxCell>
        <mxCell id="761dnnyQ54j-Cl0NHfQN-4147" value="18" style="rounded=0;whiteSpace=wrap;html=1;fontSize=32;" parent="MUZDcf-XtrYGZtJUf5Co-1" vertex="1">
          <mxGeometry x="460" y="980" width="180" height="180" as="geometry" />
        </mxCell>
        <mxCell id="761dnnyQ54j-Cl0NHfQN-4148" value="20" style="rounded=0;whiteSpace=wrap;html=1;fontSize=32;" parent="MUZDcf-XtrYGZtJUf5Co-1" vertex="1">
          <mxGeometry x="640" y="960" width="200" height="200" as="geometry" />
        </mxCell>
        <mxCell id="761dnnyQ54j-Cl0NHfQN-4149" value="13" style="rounded=0;whiteSpace=wrap;html=1;fontSize=32;" parent="MUZDcf-XtrYGZtJUf5Co-1" vertex="1">
          <mxGeometry x="460" y="850" width="130" height="130" as="geometry" />
        </mxCell>
        <mxCell id="761dnnyQ54j-Cl0NHfQN-4150" value="5" style="rounded=0;whiteSpace=wrap;html=1;fontSize=32;" parent="MUZDcf-XtrYGZtJUf5Co-1" vertex="1">
          <mxGeometry x="590" y="930" width="50" height="50" as="geometry" />
        </mxCell>
        <mxCell id="761dnnyQ54j-Cl0NHfQN-4151" value="51" style="rounded=0;whiteSpace=wrap;html=1;fontSize=32;" parent="MUZDcf-XtrYGZtJUf5Co-1" vertex="1">
          <mxGeometry x="840" y="650" width="510" height="510" as="geometry" />
        </mxCell>
        <mxCell id="761dnnyQ54j-Cl0NHfQN-4152" value="3" style="rounded=0;whiteSpace=wrap;html=1;fontSize=32;" parent="MUZDcf-XtrYGZtJUf5Co-1" vertex="1">
          <mxGeometry x="640" y="930" width="30" height="30" as="geometry" />
        </mxCell>
        <mxCell id="761dnnyQ54j-Cl0NHfQN-4153" value="17" style="rounded=0;whiteSpace=wrap;html=1;fontSize=32;" parent="MUZDcf-XtrYGZtJUf5Co-1" vertex="1">
          <mxGeometry x="670" y="790" width="170" height="170" as="geometry" />
        </mxCell>
        <mxCell id="761dnnyQ54j-Cl0NHfQN-4154" value="8" style="rounded=0;whiteSpace=wrap;html=1;fontSize=32;" parent="MUZDcf-XtrYGZtJUf5Co-1" vertex="1">
          <mxGeometry x="590" y="850" width="80" height="80" as="geometry" />
        </mxCell>
        <mxCell id="761dnnyQ54j-Cl0NHfQN-4155" value="15" style="rounded=0;whiteSpace=wrap;html=1;fontSize=32;" parent="MUZDcf-XtrYGZtJUf5Co-1" vertex="1">
          <mxGeometry x="460" y="700" width="150" height="150" as="geometry" />
        </mxCell>
        <mxCell id="761dnnyQ54j-Cl0NHfQN-4156" value="6" style="rounded=0;whiteSpace=wrap;html=1;fontSize=32;" parent="MUZDcf-XtrYGZtJUf5Co-1" vertex="1">
          <mxGeometry x="610" y="790" width="60" height="60" as="geometry" />
        </mxCell>
        <mxCell id="761dnnyQ54j-Cl0NHfQN-4157" value="9" style="rounded=0;whiteSpace=wrap;html=1;fontSize=32;" parent="MUZDcf-XtrYGZtJUf5Co-1" vertex="1">
          <mxGeometry x="610" y="700" width="90" height="90" as="geometry" />
        </mxCell>
        <mxCell id="761dnnyQ54j-Cl0NHfQN-4158" value="14" style="rounded=0;whiteSpace=wrap;html=1;fontSize=32;" parent="MUZDcf-XtrYGZtJUf5Co-1" vertex="1">
          <mxGeometry x="700" y="650" width="140" height="140" as="geometry" />
        </mxCell>
        <mxCell id="761dnnyQ54j-Cl0NHfQN-4159" value="70" style="rounded=0;whiteSpace=wrap;html=1;fontSize=32;" parent="MUZDcf-XtrYGZtJUf5Co-1" vertex="1">
          <mxGeometry width="700" height="700" as="geometry" />
        </mxCell>
        <mxCell id="761dnnyQ54j-Cl0NHfQN-4160" value="65" style="rounded=0;whiteSpace=wrap;html=1;fontSize=32;" parent="MUZDcf-XtrYGZtJUf5Co-1" vertex="1">
          <mxGeometry x="700" width="650" height="650" as="geometry" />
        </mxCell>
        <mxCell id="MUZDcf-XtrYGZtJUf5Co-18" value="" style="group;flipV=1;" vertex="1" connectable="0" parent="1">
          <mxGeometry x="1990" y="-480" width="2110" height="1920" as="geometry" />
        </mxCell>
        <mxCell id="MUZDcf-XtrYGZtJUf5Co-2" value="84" style="rounded=0;whiteSpace=wrap;html=1;fontSize=32;aspect=fixed;" vertex="1" parent="MUZDcf-XtrYGZtJUf5Co-18">
          <mxGeometry y="1080" width="840" height="840" as="geometry" />
        </mxCell>
        <mxCell id="MUZDcf-XtrYGZtJUf5Co-3" value="18" style="rounded=0;whiteSpace=wrap;html=1;fontSize=32;aspect=fixed;" vertex="1" parent="MUZDcf-XtrYGZtJUf5Co-18">
          <mxGeometry x="840" y="1360" width="180" height="180" as="geometry" />
        </mxCell>
        <mxCell id="MUZDcf-XtrYGZtJUf5Co-4" value="20" style="rounded=0;whiteSpace=wrap;html=1;fontSize=32;aspect=fixed;" vertex="1" parent="MUZDcf-XtrYGZtJUf5Co-18">
          <mxGeometry x="1020" y="1340" width="200" height="200" as="geometry" />
        </mxCell>
        <mxCell id="MUZDcf-XtrYGZtJUf5Co-5" value="13" style="rounded=0;whiteSpace=wrap;html=1;fontSize=32;aspect=fixed;" vertex="1" parent="MUZDcf-XtrYGZtJUf5Co-18">
          <mxGeometry x="840" y="1230" width="130" height="130" as="geometry" />
        </mxCell>
        <mxCell id="MUZDcf-XtrYGZtJUf5Co-6" value="5" style="rounded=0;whiteSpace=wrap;html=1;fontSize=32;aspect=fixed;" vertex="1" parent="MUZDcf-XtrYGZtJUf5Co-18">
          <mxGeometry x="970" y="1310" width="50" height="50" as="geometry" />
        </mxCell>
        <mxCell id="MUZDcf-XtrYGZtJUf5Co-7" value="89" style="rounded=0;whiteSpace=wrap;html=1;fontSize=32;aspect=fixed;" vertex="1" parent="MUZDcf-XtrYGZtJUf5Co-18">
          <mxGeometry x="1220" y="1030" width="890" height="890" as="geometry" />
        </mxCell>
        <mxCell id="MUZDcf-XtrYGZtJUf5Co-8" value="3" style="rounded=0;whiteSpace=wrap;html=1;fontSize=32;aspect=fixed;" vertex="1" parent="MUZDcf-XtrYGZtJUf5Co-18">
          <mxGeometry x="1020" y="1310" width="30" height="30" as="geometry" />
        </mxCell>
        <mxCell id="MUZDcf-XtrYGZtJUf5Co-9" value="17" style="rounded=0;whiteSpace=wrap;html=1;fontSize=32;aspect=fixed;" vertex="1" parent="MUZDcf-XtrYGZtJUf5Co-18">
          <mxGeometry x="1050" y="1170" width="170" height="170" as="geometry" />
        </mxCell>
        <mxCell id="MUZDcf-XtrYGZtJUf5Co-10" value="8" style="rounded=0;whiteSpace=wrap;html=1;fontSize=32;aspect=fixed;" vertex="1" parent="MUZDcf-XtrYGZtJUf5Co-18">
          <mxGeometry x="970" y="1230" width="80" height="80" as="geometry" />
        </mxCell>
        <mxCell id="MUZDcf-XtrYGZtJUf5Co-11" value="15" style="rounded=0;whiteSpace=wrap;html=1;fontSize=32;aspect=fixed;" vertex="1" parent="MUZDcf-XtrYGZtJUf5Co-18">
          <mxGeometry x="840" y="1080" width="150" height="150" as="geometry" />
        </mxCell>
        <mxCell id="MUZDcf-XtrYGZtJUf5Co-12" value="6" style="rounded=0;whiteSpace=wrap;html=1;fontSize=32;aspect=fixed;" vertex="1" parent="MUZDcf-XtrYGZtJUf5Co-18">
          <mxGeometry x="990" y="1170" width="60" height="60" as="geometry" />
        </mxCell>
        <mxCell id="MUZDcf-XtrYGZtJUf5Co-13" value="9" style="rounded=0;whiteSpace=wrap;html=1;fontSize=32;aspect=fixed;" vertex="1" parent="MUZDcf-XtrYGZtJUf5Co-18">
          <mxGeometry x="990" y="1080" width="90" height="90" as="geometry" />
        </mxCell>
        <mxCell id="MUZDcf-XtrYGZtJUf5Co-14" value="14" style="rounded=0;whiteSpace=wrap;html=1;fontSize=32;aspect=fixed;" vertex="1" parent="MUZDcf-XtrYGZtJUf5Co-18">
          <mxGeometry x="1080" y="1030" width="140" height="140" as="geometry" />
        </mxCell>
        <mxCell id="MUZDcf-XtrYGZtJUf5Co-15" value="108" style="rounded=0;whiteSpace=wrap;html=1;fontSize=32;aspect=fixed;" vertex="1" parent="MUZDcf-XtrYGZtJUf5Co-18">
          <mxGeometry width="1080" height="1080" as="geometry" />
        </mxCell>
        <mxCell id="MUZDcf-XtrYGZtJUf5Co-16" value="103" style="rounded=0;whiteSpace=wrap;html=1;fontSize=32;aspect=fixed;" vertex="1" parent="MUZDcf-XtrYGZtJUf5Co-18">
          <mxGeometry x="1080" width="1030" height="1030" as="geometry" />
        </mxCell>
        <mxCell id="MUZDcf-XtrYGZtJUf5Co-17" value="38" style="rounded=0;whiteSpace=wrap;html=1;fontSize=32;aspect=fixed;" vertex="1" parent="MUZDcf-XtrYGZtJUf5Co-18">
          <mxGeometry x="840" y="1540" width="380" height="380" as="geometry" />
        </mxCell>
        <mxCell id="MUZDcf-XtrYGZtJUf5Co-20" value="" style="group;flipV=1;" vertex="1" connectable="0" parent="1">
          <mxGeometry x="60" y="2700" width="1350" height="1040" as="geometry" />
        </mxCell>
        <mxCell id="761dnnyQ54j-Cl0NHfQN-8200" value="45" style="rounded=0;whiteSpace=wrap;html=1;fontSize=32;" parent="MUZDcf-XtrYGZtJUf5Co-20" vertex="1">
          <mxGeometry y="590" width="450" height="450" as="geometry" />
        </mxCell>
        <mxCell id="761dnnyQ54j-Cl0NHfQN-8201" value="22" style="rounded=0;whiteSpace=wrap;html=1;fontSize=32;" parent="MUZDcf-XtrYGZtJUf5Co-20" vertex="1">
          <mxGeometry x="450" y="820" width="220" height="220" as="geometry" />
        </mxCell>
        <mxCell id="761dnnyQ54j-Cl0NHfQN-8202" value="21" style="rounded=0;whiteSpace=wrap;html=1;fontSize=32;" parent="MUZDcf-XtrYGZtJUf5Co-20" vertex="1">
          <mxGeometry x="670" y="830" width="210" height="210" as="geometry" />
        </mxCell>
        <mxCell id="761dnnyQ54j-Cl0NHfQN-8203" value="17" style="rounded=0;whiteSpace=wrap;html=1;fontSize=32;" parent="MUZDcf-XtrYGZtJUf5Co-20" vertex="1">
          <mxGeometry x="880" y="870" width="170" height="170" as="geometry" />
        </mxCell>
        <mxCell id="761dnnyQ54j-Cl0NHfQN-8204" value="30" style="rounded=0;whiteSpace=wrap;html=1;fontSize=32;" parent="MUZDcf-XtrYGZtJUf5Co-20" vertex="1">
          <mxGeometry x="1050" y="740" width="300" height="300" as="geometry" />
        </mxCell>
        <mxCell id="761dnnyQ54j-Cl0NHfQN-8205" value="4" style="rounded=0;whiteSpace=wrap;html=1;fontSize=32;" parent="MUZDcf-XtrYGZtJUf5Co-20" vertex="1">
          <mxGeometry x="880" y="830" width="40" height="40" as="geometry" />
        </mxCell>
        <mxCell id="761dnnyQ54j-Cl0NHfQN-8206" value="13" style="rounded=0;whiteSpace=wrap;html=1;fontSize=32;" parent="MUZDcf-XtrYGZtJUf5Co-20" vertex="1">
          <mxGeometry x="920" y="740" width="130" height="130" as="geometry" />
        </mxCell>
        <mxCell id="761dnnyQ54j-Cl0NHfQN-8207" value="1" style="rounded=0;whiteSpace=wrap;html=1;fontSize=32;" parent="MUZDcf-XtrYGZtJUf5Co-20" vertex="1">
          <mxGeometry x="670" y="820" width="10" height="10" as="geometry" />
        </mxCell>
        <mxCell id="761dnnyQ54j-Cl0NHfQN-8208" value="24" style="rounded=0;whiteSpace=wrap;html=1;fontSize=32;" parent="MUZDcf-XtrYGZtJUf5Co-20" vertex="1">
          <mxGeometry x="680" y="590" width="240" height="240" as="geometry" />
        </mxCell>
        <mxCell id="761dnnyQ54j-Cl0NHfQN-8209" value="23" style="rounded=0;whiteSpace=wrap;html=1;fontSize=32;" parent="MUZDcf-XtrYGZtJUf5Co-20" vertex="1">
          <mxGeometry x="450" y="590" width="230" height="230" as="geometry" />
        </mxCell>
        <mxCell id="761dnnyQ54j-Cl0NHfQN-8210" value="43" style="rounded=0;whiteSpace=wrap;html=1;fontSize=32;" parent="MUZDcf-XtrYGZtJUf5Co-20" vertex="1">
          <mxGeometry x="920" y="310" width="430" height="430" as="geometry" />
        </mxCell>
        <mxCell id="761dnnyQ54j-Cl0NHfQN-8211" value="59" style="rounded=0;whiteSpace=wrap;html=1;fontSize=32;" parent="MUZDcf-XtrYGZtJUf5Co-20" vertex="1">
          <mxGeometry width="590" height="590" as="geometry" />
        </mxCell>
        <mxCell id="761dnnyQ54j-Cl0NHfQN-8212" value="33" style="rounded=0;whiteSpace=wrap;html=1;fontSize=32;" parent="MUZDcf-XtrYGZtJUf5Co-20" vertex="1">
          <mxGeometry x="590" y="260" width="330" height="330" as="geometry" />
        </mxCell>
        <mxCell id="761dnnyQ54j-Cl0NHfQN-8213" value="12" style="rounded=0;whiteSpace=wrap;html=1;fontSize=32;" parent="MUZDcf-XtrYGZtJUf5Co-20" vertex="1">
          <mxGeometry x="920" y="190" width="120" height="120" as="geometry" />
        </mxCell>
        <mxCell id="761dnnyQ54j-Cl0NHfQN-8214" value="31" style="rounded=0;whiteSpace=wrap;html=1;fontSize=32;" parent="MUZDcf-XtrYGZtJUf5Co-20" vertex="1">
          <mxGeometry x="1040" width="310" height="310" as="geometry" />
        </mxCell>
        <mxCell id="761dnnyQ54j-Cl0NHfQN-8215" value="26" style="rounded=0;whiteSpace=wrap;html=1;fontSize=32;" parent="MUZDcf-XtrYGZtJUf5Co-20" vertex="1">
          <mxGeometry x="590" width="260" height="260" as="geometry" />
        </mxCell>
        <mxCell id="761dnnyQ54j-Cl0NHfQN-8216" value="7" style="rounded=0;whiteSpace=wrap;html=1;fontSize=32;" parent="MUZDcf-XtrYGZtJUf5Co-20" vertex="1">
          <mxGeometry x="850" y="190" width="70" height="70" as="geometry" />
        </mxCell>
        <mxCell id="761dnnyQ54j-Cl0NHfQN-8217" value="19" style="rounded=0;whiteSpace=wrap;html=1;fontSize=32;" parent="MUZDcf-XtrYGZtJUf5Co-20" vertex="1">
          <mxGeometry x="850" width="190" height="190" as="geometry" />
        </mxCell>
        <mxCell id="MUZDcf-XtrYGZtJUf5Co-21" value="" style="group;flipV=1;" vertex="1" connectable="0" parent="1">
          <mxGeometry x="40" y="3870" width="1350" height="940" as="geometry" />
        </mxCell>
        <mxCell id="761dnnyQ54j-Cl0NHfQN-8238" value="42" style="rounded=0;whiteSpace=wrap;html=1;fontSize=32;" parent="MUZDcf-XtrYGZtJUf5Co-21" vertex="1">
          <mxGeometry y="520" width="420" height="420" as="geometry" />
        </mxCell>
        <mxCell id="761dnnyQ54j-Cl0NHfQN-8239" value="23" style="rounded=0;whiteSpace=wrap;html=1;fontSize=32;" parent="MUZDcf-XtrYGZtJUf5Co-21" vertex="1">
          <mxGeometry x="420" y="710" width="230" height="230" as="geometry" />
        </mxCell>
        <mxCell id="761dnnyQ54j-Cl0NHfQN-8240" value="27" style="rounded=0;whiteSpace=wrap;html=1;fontSize=32;" parent="MUZDcf-XtrYGZtJUf5Co-21" vertex="1">
          <mxGeometry x="650" y="670" width="270" height="270" as="geometry" />
        </mxCell>
        <mxCell id="761dnnyQ54j-Cl0NHfQN-8241" value="19" style="rounded=0;whiteSpace=wrap;html=1;fontSize=32;" parent="MUZDcf-XtrYGZtJUf5Co-21" vertex="1">
          <mxGeometry x="420" y="520" width="190" height="190" as="geometry" />
        </mxCell>
        <mxCell id="761dnnyQ54j-Cl0NHfQN-8242" value="4" style="rounded=0;whiteSpace=wrap;html=1;fontSize=32;" parent="MUZDcf-XtrYGZtJUf5Co-21" vertex="1">
          <mxGeometry x="610" y="670" width="40" height="40" as="geometry" />
        </mxCell>
        <mxCell id="761dnnyQ54j-Cl0NHfQN-8243" value="43" style="rounded=0;whiteSpace=wrap;html=1;fontSize=32;" parent="MUZDcf-XtrYGZtJUf5Co-21" vertex="1">
          <mxGeometry x="920" y="510" width="430" height="430" as="geometry" />
        </mxCell>
        <mxCell id="761dnnyQ54j-Cl0NHfQN-8244" value="15" style="rounded=0;whiteSpace=wrap;html=1;fontSize=32;" parent="MUZDcf-XtrYGZtJUf5Co-21" vertex="1">
          <mxGeometry x="610" y="520" width="150" height="150" as="geometry" />
        </mxCell>
        <mxCell id="761dnnyQ54j-Cl0NHfQN-8245" value="16" style="rounded=0;whiteSpace=wrap;html=1;fontSize=32;" parent="MUZDcf-XtrYGZtJUf5Co-21" vertex="1">
          <mxGeometry x="760" y="510" width="160" height="160" as="geometry" />
        </mxCell>
        <mxCell id="761dnnyQ54j-Cl0NHfQN-8246" value="52" style="rounded=0;whiteSpace=wrap;html=1;fontSize=32;" parent="MUZDcf-XtrYGZtJUf5Co-21" vertex="1">
          <mxGeometry width="520" height="520" as="geometry" />
        </mxCell>
        <mxCell id="761dnnyQ54j-Cl0NHfQN-8247" value="20" style="rounded=0;whiteSpace=wrap;html=1;fontSize=32;" parent="MUZDcf-XtrYGZtJUf5Co-21" vertex="1">
          <mxGeometry x="520" y="320" width="200" height="200" as="geometry" />
        </mxCell>
        <mxCell id="761dnnyQ54j-Cl0NHfQN-8248" value="3" style="rounded=0;whiteSpace=wrap;html=1;fontSize=32;" parent="MUZDcf-XtrYGZtJUf5Co-21" vertex="1">
          <mxGeometry x="720" y="490" width="30" height="30" as="geometry" />
        </mxCell>
        <mxCell id="761dnnyQ54j-Cl0NHfQN-8249" value="1" style="rounded=0;whiteSpace=wrap;html=1;fontSize=32;" parent="MUZDcf-XtrYGZtJUf5Co-21" vertex="1">
          <mxGeometry x="750" y="510" width="10" height="10" as="geometry" />
        </mxCell>
        <mxCell id="761dnnyQ54j-Cl0NHfQN-8250" value="2" style="rounded=0;whiteSpace=wrap;html=1;fontSize=32;" parent="MUZDcf-XtrYGZtJUf5Co-21" vertex="1">
          <mxGeometry x="750" y="490" width="20" height="20" as="geometry" />
        </mxCell>
        <mxCell id="761dnnyQ54j-Cl0NHfQN-8251" value="7" style="rounded=0;whiteSpace=wrap;html=1;fontSize=32;" parent="MUZDcf-XtrYGZtJUf5Co-21" vertex="1">
          <mxGeometry x="770" y="440" width="70" height="70" as="geometry" />
        </mxCell>
        <mxCell id="761dnnyQ54j-Cl0NHfQN-8252" value="5" style="rounded=0;whiteSpace=wrap;html=1;fontSize=32;" parent="MUZDcf-XtrYGZtJUf5Co-21" vertex="1">
          <mxGeometry x="720" y="440" width="50" height="50" as="geometry" />
        </mxCell>
        <mxCell id="761dnnyQ54j-Cl0NHfQN-8253" value="51" style="rounded=0;whiteSpace=wrap;html=1;fontSize=32;" parent="MUZDcf-XtrYGZtJUf5Co-21" vertex="1">
          <mxGeometry x="840" width="510" height="510" as="geometry" />
        </mxCell>
        <mxCell id="761dnnyQ54j-Cl0NHfQN-8254" value="12" style="rounded=0;whiteSpace=wrap;html=1;fontSize=32;" parent="MUZDcf-XtrYGZtJUf5Co-21" vertex="1">
          <mxGeometry x="720" y="320" width="120" height="120" as="geometry" />
        </mxCell>
        <mxCell id="761dnnyQ54j-Cl0NHfQN-8255" value="32" style="rounded=0;whiteSpace=wrap;html=1;fontSize=32;" parent="MUZDcf-XtrYGZtJUf5Co-21" vertex="1">
          <mxGeometry x="520" width="320" height="320" as="geometry" />
        </mxCell>
        <mxCell id="MUZDcf-XtrYGZtJUf5Co-22" value="" style="group;flipV=1;" vertex="1" connectable="0" parent="1">
          <mxGeometry x="40" y="4910" width="1350" height="1050" as="geometry" />
        </mxCell>
        <mxCell id="761dnnyQ54j-Cl0NHfQN-11310" value="49" style="rounded=0;whiteSpace=wrap;html=1;fontSize=32;" parent="MUZDcf-XtrYGZtJUf5Co-22" vertex="1">
          <mxGeometry y="560" width="490" height="490" as="geometry" />
        </mxCell>
        <mxCell id="761dnnyQ54j-Cl0NHfQN-11311" value="24" style="rounded=0;whiteSpace=wrap;html=1;fontSize=32;" parent="MUZDcf-XtrYGZtJUf5Co-22" vertex="1">
          <mxGeometry x="490" y="810" width="240" height="240" as="geometry" />
        </mxCell>
        <mxCell id="761dnnyQ54j-Cl0NHfQN-11312" value="30" style="rounded=0;whiteSpace=wrap;html=1;fontSize=32;" parent="MUZDcf-XtrYGZtJUf5Co-22" vertex="1">
          <mxGeometry x="730" y="750" width="300" height="300" as="geometry" />
        </mxCell>
        <mxCell id="761dnnyQ54j-Cl0NHfQN-11313" value="18" style="rounded=0;whiteSpace=wrap;html=1;fontSize=32;" parent="MUZDcf-XtrYGZtJUf5Co-22" vertex="1">
          <mxGeometry x="490" y="630" width="180" height="180" as="geometry" />
        </mxCell>
        <mxCell id="761dnnyQ54j-Cl0NHfQN-11314" value="6" style="rounded=0;whiteSpace=wrap;html=1;fontSize=32;" parent="MUZDcf-XtrYGZtJUf5Co-22" vertex="1">
          <mxGeometry x="670" y="750" width="60" height="60" as="geometry" />
        </mxCell>
        <mxCell id="761dnnyQ54j-Cl0NHfQN-11315" value="32" style="rounded=0;whiteSpace=wrap;html=1;fontSize=32;" parent="MUZDcf-XtrYGZtJUf5Co-22" vertex="1">
          <mxGeometry x="1030" y="730" width="320" height="320" as="geometry" />
        </mxCell>
        <mxCell id="761dnnyQ54j-Cl0NHfQN-11316" value="12" style="rounded=0;whiteSpace=wrap;html=1;fontSize=32;" parent="MUZDcf-XtrYGZtJUf5Co-22" vertex="1">
          <mxGeometry x="670" y="630" width="120" height="120" as="geometry" />
        </mxCell>
        <mxCell id="761dnnyQ54j-Cl0NHfQN-11317" value="22" style="rounded=0;whiteSpace=wrap;html=1;fontSize=32;" parent="MUZDcf-XtrYGZtJUf5Co-22" vertex="1">
          <mxGeometry x="790" y="530" width="220" height="220" as="geometry" />
        </mxCell>
        <mxCell id="761dnnyQ54j-Cl0NHfQN-11318" value="2" style="rounded=0;whiteSpace=wrap;html=1;fontSize=32;" parent="MUZDcf-XtrYGZtJUf5Co-22" vertex="1">
          <mxGeometry x="1010" y="730" width="20" height="20" as="geometry" />
        </mxCell>
        <mxCell id="761dnnyQ54j-Cl0NHfQN-11319" value="7" style="rounded=0;whiteSpace=wrap;html=1;fontSize=32;" parent="MUZDcf-XtrYGZtJUf5Co-22" vertex="1">
          <mxGeometry x="490" y="560" width="70" height="70" as="geometry" />
        </mxCell>
        <mxCell id="761dnnyQ54j-Cl0NHfQN-11320" value="23" style="rounded=0;whiteSpace=wrap;html=1;fontSize=32;" parent="MUZDcf-XtrYGZtJUf5Co-22" vertex="1">
          <mxGeometry x="560" y="400" width="230" height="230" as="geometry" />
        </mxCell>
        <mxCell id="761dnnyQ54j-Cl0NHfQN-11321" value="34" style="rounded=0;whiteSpace=wrap;html=1;fontSize=32;" parent="MUZDcf-XtrYGZtJUf5Co-22" vertex="1">
          <mxGeometry x="1010" y="390" width="340" height="340" as="geometry" />
        </mxCell>
        <mxCell id="761dnnyQ54j-Cl0NHfQN-11322" value="13" style="rounded=0;whiteSpace=wrap;html=1;fontSize=32;" parent="MUZDcf-XtrYGZtJUf5Co-22" vertex="1">
          <mxGeometry x="790" y="400" width="130" height="130" as="geometry" />
        </mxCell>
        <mxCell id="761dnnyQ54j-Cl0NHfQN-11323" value="9" style="rounded=0;whiteSpace=wrap;html=1;fontSize=32;" parent="MUZDcf-XtrYGZtJUf5Co-22" vertex="1">
          <mxGeometry x="920" y="440" width="90" height="90" as="geometry" />
        </mxCell>
        <mxCell id="761dnnyQ54j-Cl0NHfQN-11324" value="4" style="rounded=0;whiteSpace=wrap;html=1;fontSize=32;" parent="MUZDcf-XtrYGZtJUf5Co-22" vertex="1">
          <mxGeometry x="920" y="400" width="40" height="40" as="geometry" />
        </mxCell>
        <mxCell id="761dnnyQ54j-Cl0NHfQN-11325" value="5" style="rounded=0;whiteSpace=wrap;html=1;fontSize=32;" parent="MUZDcf-XtrYGZtJUf5Co-22" vertex="1">
          <mxGeometry x="960" y="390" width="50" height="50" as="geometry" />
        </mxCell>
        <mxCell id="761dnnyQ54j-Cl0NHfQN-11326" value="56" style="rounded=0;whiteSpace=wrap;html=1;fontSize=32;" parent="MUZDcf-XtrYGZtJUf5Co-22" vertex="1">
          <mxGeometry width="560" height="560" as="geometry" />
        </mxCell>
        <mxCell id="761dnnyQ54j-Cl0NHfQN-11327" value="40" style="rounded=0;whiteSpace=wrap;html=1;fontSize=32;" parent="MUZDcf-XtrYGZtJUf5Co-22" vertex="1">
          <mxGeometry x="560" width="400" height="400" as="geometry" />
        </mxCell>
        <mxCell id="761dnnyQ54j-Cl0NHfQN-11328" value="39" style="rounded=0;whiteSpace=wrap;html=1;fontSize=32;" parent="MUZDcf-XtrYGZtJUf5Co-22" vertex="1">
          <mxGeometry x="960" width="390" height="390" as="geometry" />
        </mxCell>
        <mxCell id="MUZDcf-XtrYGZtJUf5Co-24" value="" style="group;flipV=1;" vertex="1" connectable="0" parent="1">
          <mxGeometry x="50" y="7320" width="1350" height="1280" as="geometry" />
        </mxCell>
        <mxCell id="761dnnyQ54j-Cl0NHfQN-46251" value="41" style="rounded=0;whiteSpace=wrap;html=1;fontSize=32;" parent="MUZDcf-XtrYGZtJUf5Co-24" vertex="1">
          <mxGeometry y="870" width="410" height="410" as="geometry" />
        </mxCell>
        <mxCell id="761dnnyQ54j-Cl0NHfQN-46252" value="46" style="rounded=0;whiteSpace=wrap;html=1;fontSize=32;" parent="MUZDcf-XtrYGZtJUf5Co-24" vertex="1">
          <mxGeometry x="410" y="820" width="460" height="460" as="geometry" />
        </mxCell>
        <mxCell id="761dnnyQ54j-Cl0NHfQN-46253" value="36" style="rounded=0;whiteSpace=wrap;html=1;fontSize=32;" parent="MUZDcf-XtrYGZtJUf5Co-24" vertex="1">
          <mxGeometry y="510" width="360" height="360" as="geometry" />
        </mxCell>
        <mxCell id="761dnnyQ54j-Cl0NHfQN-46254" value="5" style="rounded=0;whiteSpace=wrap;html=1;fontSize=32;" parent="MUZDcf-XtrYGZtJUf5Co-24" vertex="1">
          <mxGeometry x="360" y="820" width="50" height="50" as="geometry" />
        </mxCell>
        <mxCell id="761dnnyQ54j-Cl0NHfQN-46255" value="48" style="rounded=0;whiteSpace=wrap;html=1;fontSize=32;" parent="MUZDcf-XtrYGZtJUf5Co-24" vertex="1">
          <mxGeometry x="870" y="800" width="480" height="480" as="geometry" />
        </mxCell>
        <mxCell id="761dnnyQ54j-Cl0NHfQN-46256" value="31" style="rounded=0;whiteSpace=wrap;html=1;fontSize=32;" parent="MUZDcf-XtrYGZtJUf5Co-24" vertex="1">
          <mxGeometry x="360" y="510" width="310" height="310" as="geometry" />
        </mxCell>
        <mxCell id="761dnnyQ54j-Cl0NHfQN-46257" value="20" style="rounded=0;whiteSpace=wrap;html=1;fontSize=32;" parent="MUZDcf-XtrYGZtJUf5Co-24" vertex="1">
          <mxGeometry x="670" y="620" width="200" height="200" as="geometry" />
        </mxCell>
        <mxCell id="761dnnyQ54j-Cl0NHfQN-46258" value="18" style="rounded=0;whiteSpace=wrap;html=1;fontSize=32;" parent="MUZDcf-XtrYGZtJUf5Co-24" vertex="1">
          <mxGeometry x="870" y="620" width="180" height="180" as="geometry" />
        </mxCell>
        <mxCell id="761dnnyQ54j-Cl0NHfQN-46259" value="30" style="rounded=0;whiteSpace=wrap;html=1;fontSize=32;" parent="MUZDcf-XtrYGZtJUf5Co-24" vertex="1">
          <mxGeometry x="1050" y="500" width="300" height="300" as="geometry" />
        </mxCell>
        <mxCell id="761dnnyQ54j-Cl0NHfQN-46260" value="27" style="rounded=0;whiteSpace=wrap;html=1;fontSize=32;" parent="MUZDcf-XtrYGZtJUf5Co-24" vertex="1">
          <mxGeometry x="670" y="350" width="270" height="270" as="geometry" />
        </mxCell>
        <mxCell id="761dnnyQ54j-Cl0NHfQN-46261" value="11" style="rounded=0;whiteSpace=wrap;html=1;fontSize=32;" parent="MUZDcf-XtrYGZtJUf5Co-24" vertex="1">
          <mxGeometry x="940" y="510" width="110" height="110" as="geometry" />
        </mxCell>
        <mxCell id="761dnnyQ54j-Cl0NHfQN-46262" value="10" style="rounded=0;whiteSpace=wrap;html=1;fontSize=32;" parent="MUZDcf-XtrYGZtJUf5Co-24" vertex="1">
          <mxGeometry x="940" y="410" width="100" height="100" as="geometry" />
        </mxCell>
        <mxCell id="761dnnyQ54j-Cl0NHfQN-46263" value="1" style="rounded=0;whiteSpace=wrap;html=1;fontSize=32;" parent="MUZDcf-XtrYGZtJUf5Co-24" vertex="1">
          <mxGeometry x="1040" y="500" width="10" height="10" as="geometry" />
        </mxCell>
        <mxCell id="761dnnyQ54j-Cl0NHfQN-46264" value="9" style="rounded=0;whiteSpace=wrap;html=1;fontSize=32;" parent="MUZDcf-XtrYGZtJUf5Co-24" vertex="1">
          <mxGeometry x="1040" y="410" width="90" height="90" as="geometry" />
        </mxCell>
        <mxCell id="761dnnyQ54j-Cl0NHfQN-46265" value="22" style="rounded=0;whiteSpace=wrap;html=1;fontSize=32;" parent="MUZDcf-XtrYGZtJUf5Co-24" vertex="1">
          <mxGeometry x="1130" y="280" width="220" height="220" as="geometry" />
        </mxCell>
        <mxCell id="761dnnyQ54j-Cl0NHfQN-46266" value="6" style="rounded=0;whiteSpace=wrap;html=1;fontSize=32;" parent="MUZDcf-XtrYGZtJUf5Co-24" vertex="1">
          <mxGeometry x="940" y="350" width="60" height="60" as="geometry" />
        </mxCell>
        <mxCell id="761dnnyQ54j-Cl0NHfQN-46267" value="13" style="rounded=0;whiteSpace=wrap;html=1;fontSize=32;" parent="MUZDcf-XtrYGZtJUf5Co-24" vertex="1">
          <mxGeometry x="1000" y="280" width="130" height="130" as="geometry" />
        </mxCell>
        <mxCell id="761dnnyQ54j-Cl0NHfQN-46268" value="51" style="rounded=0;whiteSpace=wrap;html=1;fontSize=32;" parent="MUZDcf-XtrYGZtJUf5Co-24" vertex="1">
          <mxGeometry width="510" height="510" as="geometry" />
        </mxCell>
        <mxCell id="761dnnyQ54j-Cl0NHfQN-46269" value="16" style="rounded=0;whiteSpace=wrap;html=1;fontSize=32;" parent="MUZDcf-XtrYGZtJUf5Co-24" vertex="1">
          <mxGeometry x="510" y="350" width="160" height="160" as="geometry" />
        </mxCell>
        <mxCell id="761dnnyQ54j-Cl0NHfQN-46270" value="35" style="rounded=0;whiteSpace=wrap;html=1;fontSize=32;" parent="MUZDcf-XtrYGZtJUf5Co-24" vertex="1">
          <mxGeometry x="510" width="350" height="350" as="geometry" />
        </mxCell>
        <mxCell id="761dnnyQ54j-Cl0NHfQN-46271" value="14" style="rounded=0;whiteSpace=wrap;html=1;fontSize=32;" parent="MUZDcf-XtrYGZtJUf5Co-24" vertex="1">
          <mxGeometry x="860" y="210" width="140" height="140" as="geometry" />
        </mxCell>
        <mxCell id="761dnnyQ54j-Cl0NHfQN-46272" value="7" style="rounded=0;whiteSpace=wrap;html=1;fontSize=32;" parent="MUZDcf-XtrYGZtJUf5Co-24" vertex="1">
          <mxGeometry x="1000" y="210" width="70" height="70" as="geometry" />
        </mxCell>
        <mxCell id="761dnnyQ54j-Cl0NHfQN-46273" value="28" style="rounded=0;whiteSpace=wrap;html=1;fontSize=32;" parent="MUZDcf-XtrYGZtJUf5Co-24" vertex="1">
          <mxGeometry x="1070" width="280" height="280" as="geometry" />
        </mxCell>
        <mxCell id="761dnnyQ54j-Cl0NHfQN-46274" value="21" style="rounded=0;whiteSpace=wrap;html=1;fontSize=32;" parent="MUZDcf-XtrYGZtJUf5Co-24" vertex="1">
          <mxGeometry x="860" width="210" height="210" as="geometry" />
        </mxCell>
        <mxCell id="MUZDcf-XtrYGZtJUf5Co-25" value="" style="group;flipV=1;" vertex="1" connectable="0" parent="1">
          <mxGeometry x="40" y="1250" width="1370" height="1370" as="geometry" />
        </mxCell>
        <mxCell id="AsBp8XiL8Dx4Y6rQVwFH-6473" value="R, W: 135, H: 119, ORDER: 17, GC: {59, 26, 19, 31, 7, 12, 33, 43, 60, 32, 21, 22, 28, 4, 24, 1, 23} " style="text;html=1;strokeColor=none;fillColor=none;align=center;verticalAlign=middle;whiteSpace=wrap;rounded=0;fontSize=32;" parent="MUZDcf-XtrYGZtJUf5Co-25" vertex="1">
          <mxGeometry y="1340" width="1350" height="30" as="geometry" />
        </mxCell>
        <mxCell id="AsBp8XiL8Dx4Y6rQVwFH-8199" value="R, W: 135, H: 104, ORDER: 18, GC: {45, 22, 21, 17, 30, 4, 13, 1, 24, 23, 43, 59, 33, 12, 31, 26, 7, 19} " style="text;html=1;strokeColor=none;fillColor=none;align=center;verticalAlign=middle;whiteSpace=wrap;rounded=0;fontSize=32;" parent="MUZDcf-XtrYGZtJUf5Co-25" vertex="1">
          <mxGeometry x="20" width="1350" height="30" as="geometry" />
        </mxCell>
        <mxCell id="MUZDcf-XtrYGZtJUf5Co-19" value="" style="group" vertex="1" connectable="0" parent="MUZDcf-XtrYGZtJUf5Co-25">
          <mxGeometry y="130" width="1350" height="1190" as="geometry" />
        </mxCell>
        <mxCell id="761dnnyQ54j-Cl0NHfQN-6474" value="59" style="rounded=0;whiteSpace=wrap;html=1;fontSize=32;" parent="MUZDcf-XtrYGZtJUf5Co-19" vertex="1">
          <mxGeometry width="590" height="590" as="geometry" />
        </mxCell>
        <mxCell id="761dnnyQ54j-Cl0NHfQN-6475" value="26" style="rounded=0;whiteSpace=wrap;html=1;fontSize=32;" parent="MUZDcf-XtrYGZtJUf5Co-19" vertex="1">
          <mxGeometry x="590" width="260" height="260" as="geometry" />
        </mxCell>
        <mxCell id="761dnnyQ54j-Cl0NHfQN-6476" value="19" style="rounded=0;whiteSpace=wrap;html=1;fontSize=32;" parent="MUZDcf-XtrYGZtJUf5Co-19" vertex="1">
          <mxGeometry x="850" width="190" height="190" as="geometry" />
        </mxCell>
        <mxCell id="761dnnyQ54j-Cl0NHfQN-6477" value="31" style="rounded=0;whiteSpace=wrap;html=1;fontSize=32;" parent="MUZDcf-XtrYGZtJUf5Co-19" vertex="1">
          <mxGeometry x="1040" width="310" height="310" as="geometry" />
        </mxCell>
        <mxCell id="761dnnyQ54j-Cl0NHfQN-6478" value="7" style="rounded=0;whiteSpace=wrap;html=1;fontSize=32;" parent="MUZDcf-XtrYGZtJUf5Co-19" vertex="1">
          <mxGeometry x="850" y="190" width="70" height="70" as="geometry" />
        </mxCell>
        <mxCell id="761dnnyQ54j-Cl0NHfQN-6479" value="12" style="rounded=0;whiteSpace=wrap;html=1;fontSize=32;" parent="MUZDcf-XtrYGZtJUf5Co-19" vertex="1">
          <mxGeometry x="920" y="190" width="120" height="120" as="geometry" />
        </mxCell>
        <mxCell id="761dnnyQ54j-Cl0NHfQN-6480" value="33" style="rounded=0;whiteSpace=wrap;html=1;fontSize=32;" parent="MUZDcf-XtrYGZtJUf5Co-19" vertex="1">
          <mxGeometry x="590" y="260" width="330" height="330" as="geometry" />
        </mxCell>
        <mxCell id="761dnnyQ54j-Cl0NHfQN-6481" value="43" style="rounded=0;whiteSpace=wrap;html=1;fontSize=32;" parent="MUZDcf-XtrYGZtJUf5Co-19" vertex="1">
          <mxGeometry x="920" y="310" width="430" height="430" as="geometry" />
        </mxCell>
        <mxCell id="761dnnyQ54j-Cl0NHfQN-6482" value="60" style="rounded=0;whiteSpace=wrap;html=1;fontSize=32;" parent="MUZDcf-XtrYGZtJUf5Co-19" vertex="1">
          <mxGeometry y="590" width="600" height="600" as="geometry" />
        </mxCell>
        <mxCell id="761dnnyQ54j-Cl0NHfQN-6483" value="32" style="rounded=0;whiteSpace=wrap;html=1;fontSize=32;" parent="MUZDcf-XtrYGZtJUf5Co-19" vertex="1">
          <mxGeometry x="600" y="590" width="320" height="320" as="geometry" />
        </mxCell>
        <mxCell id="761dnnyQ54j-Cl0NHfQN-6484" value="21" style="rounded=0;whiteSpace=wrap;html=1;fontSize=32;" parent="MUZDcf-XtrYGZtJUf5Co-19" vertex="1">
          <mxGeometry x="920" y="740" width="210" height="210" as="geometry" />
        </mxCell>
        <mxCell id="761dnnyQ54j-Cl0NHfQN-6485" value="22" style="rounded=0;whiteSpace=wrap;html=1;fontSize=32;" parent="MUZDcf-XtrYGZtJUf5Co-19" vertex="1">
          <mxGeometry x="1130" y="740" width="220" height="220" as="geometry" />
        </mxCell>
        <mxCell id="761dnnyQ54j-Cl0NHfQN-6486" value="28" style="rounded=0;whiteSpace=wrap;html=1;fontSize=32;" parent="MUZDcf-XtrYGZtJUf5Co-19" vertex="1">
          <mxGeometry x="600" y="910" width="280" height="280" as="geometry" />
        </mxCell>
        <mxCell id="761dnnyQ54j-Cl0NHfQN-6487" value="4" style="rounded=0;whiteSpace=wrap;html=1;fontSize=32;" parent="MUZDcf-XtrYGZtJUf5Co-19" vertex="1">
          <mxGeometry x="880" y="910" width="40" height="40" as="geometry" />
        </mxCell>
        <mxCell id="761dnnyQ54j-Cl0NHfQN-6488" value="24" style="rounded=0;whiteSpace=wrap;html=1;fontSize=32;" parent="MUZDcf-XtrYGZtJUf5Co-19" vertex="1">
          <mxGeometry x="880" y="950" width="240" height="240" as="geometry" />
        </mxCell>
        <mxCell id="761dnnyQ54j-Cl0NHfQN-6489" value="1" style="rounded=0;whiteSpace=wrap;html=1;fontSize=32;" parent="MUZDcf-XtrYGZtJUf5Co-19" vertex="1">
          <mxGeometry x="1120" y="950" width="10" height="10" as="geometry" />
        </mxCell>
        <mxCell id="761dnnyQ54j-Cl0NHfQN-6490" value="23" style="rounded=0;whiteSpace=wrap;html=1;fontSize=32;" parent="MUZDcf-XtrYGZtJUf5Co-19" vertex="1">
          <mxGeometry x="1120" y="960" width="230" height="230" as="geometry" />
        </mxCell>
        <mxCell id="AsBp8XiL8Dx4Y6rQVwFH-39443" value="R, W: 135, H: 108, ORDER: 22, GC: {51, 24, 21, 39, 3, 18, 27, 12, 16, 29, 57, 19, 10, 4, 7, 9, 1, 13, 8, 2, 40, 38} " style="text;html=1;strokeColor=none;fillColor=none;align=center;verticalAlign=middle;whiteSpace=wrap;rounded=0;fontSize=32;" parent="1" vertex="1">
          <mxGeometry x="50" y="6060" width="1350" height="30" as="geometry" />
        </mxCell>
        <mxCell id="MUZDcf-XtrYGZtJUf5Co-23" value="" style="group;flipV=1;" vertex="1" connectable="0" parent="1">
          <mxGeometry x="50" y="6110" width="1350" height="1080" as="geometry" />
        </mxCell>
        <mxCell id="761dnnyQ54j-Cl0NHfQN-39444" value="51" style="rounded=0;whiteSpace=wrap;html=1;fontSize=32;" parent="MUZDcf-XtrYGZtJUf5Co-23" vertex="1">
          <mxGeometry y="570" width="510" height="510" as="geometry" />
        </mxCell>
        <mxCell id="761dnnyQ54j-Cl0NHfQN-39445" value="24" style="rounded=0;whiteSpace=wrap;html=1;fontSize=32;" parent="MUZDcf-XtrYGZtJUf5Co-23" vertex="1">
          <mxGeometry x="510" y="840" width="240" height="240" as="geometry" />
        </mxCell>
        <mxCell id="761dnnyQ54j-Cl0NHfQN-39446" value="21" style="rounded=0;whiteSpace=wrap;html=1;fontSize=32;" parent="MUZDcf-XtrYGZtJUf5Co-23" vertex="1">
          <mxGeometry x="750" y="870" width="210" height="210" as="geometry" />
        </mxCell>
        <mxCell id="761dnnyQ54j-Cl0NHfQN-39447" value="39" style="rounded=0;whiteSpace=wrap;html=1;fontSize=32;" parent="MUZDcf-XtrYGZtJUf5Co-23" vertex="1">
          <mxGeometry x="960" y="690" width="390" height="390" as="geometry" />
        </mxCell>
        <mxCell id="761dnnyQ54j-Cl0NHfQN-39448" value="3" style="rounded=0;whiteSpace=wrap;html=1;fontSize=32;" parent="MUZDcf-XtrYGZtJUf5Co-23" vertex="1">
          <mxGeometry x="750" y="840" width="30" height="30" as="geometry" />
        </mxCell>
        <mxCell id="761dnnyQ54j-Cl0NHfQN-39449" value="18" style="rounded=0;whiteSpace=wrap;html=1;fontSize=32;" parent="MUZDcf-XtrYGZtJUf5Co-23" vertex="1">
          <mxGeometry x="780" y="690" width="180" height="180" as="geometry" />
        </mxCell>
        <mxCell id="761dnnyQ54j-Cl0NHfQN-39450" value="27" style="rounded=0;whiteSpace=wrap;html=1;fontSize=32;" parent="MUZDcf-XtrYGZtJUf5Co-23" vertex="1">
          <mxGeometry x="510" y="570" width="270" height="270" as="geometry" />
        </mxCell>
        <mxCell id="761dnnyQ54j-Cl0NHfQN-39451" value="12" style="rounded=0;whiteSpace=wrap;html=1;fontSize=32;" parent="MUZDcf-XtrYGZtJUf5Co-23" vertex="1">
          <mxGeometry x="780" y="570" width="120" height="120" as="geometry" />
        </mxCell>
        <mxCell id="761dnnyQ54j-Cl0NHfQN-39452" value="16" style="rounded=0;whiteSpace=wrap;html=1;fontSize=32;flipV=1;" parent="MUZDcf-XtrYGZtJUf5Co-23" vertex="1">
          <mxGeometry x="900" y="530" width="160" height="160" as="geometry" />
        </mxCell>
        <mxCell id="761dnnyQ54j-Cl0NHfQN-39453" value="29" style="rounded=0;whiteSpace=wrap;html=1;fontSize=32;" parent="MUZDcf-XtrYGZtJUf5Co-23" vertex="1">
          <mxGeometry x="1060" y="400" width="290" height="290" as="geometry" />
        </mxCell>
        <mxCell id="761dnnyQ54j-Cl0NHfQN-39454" value="57" style="rounded=0;whiteSpace=wrap;html=1;fontSize=32;" parent="MUZDcf-XtrYGZtJUf5Co-23" vertex="1">
          <mxGeometry width="570" height="570" as="geometry" />
        </mxCell>
        <mxCell id="761dnnyQ54j-Cl0NHfQN-39455" value="19" style="rounded=0;whiteSpace=wrap;html=1;fontSize=32;" parent="MUZDcf-XtrYGZtJUf5Co-23" vertex="1">
          <mxGeometry x="570" y="380" width="190" height="190" as="geometry" />
        </mxCell>
        <mxCell id="761dnnyQ54j-Cl0NHfQN-39456" value="10" style="rounded=0;whiteSpace=wrap;html=1;fontSize=32;" parent="MUZDcf-XtrYGZtJUf5Co-23" vertex="1">
          <mxGeometry x="760" y="470" width="100" height="100" as="geometry" />
        </mxCell>
        <mxCell id="761dnnyQ54j-Cl0NHfQN-39457" value="4" style="rounded=0;whiteSpace=wrap;html=1;fontSize=32;" parent="MUZDcf-XtrYGZtJUf5Co-23" vertex="1">
          <mxGeometry x="860" y="530" width="40" height="40" as="geometry" />
        </mxCell>
        <mxCell id="761dnnyQ54j-Cl0NHfQN-39458" value="7" style="rounded=0;whiteSpace=wrap;html=1;fontSize=32;" parent="MUZDcf-XtrYGZtJUf5Co-23" vertex="1">
          <mxGeometry x="860" y="460" width="70" height="70" as="geometry" />
        </mxCell>
        <mxCell id="761dnnyQ54j-Cl0NHfQN-39459" value="9" style="rounded=0;whiteSpace=wrap;html=1;fontSize=32;" parent="MUZDcf-XtrYGZtJUf5Co-23" vertex="1">
          <mxGeometry x="760" y="380" width="90" height="90" as="geometry" />
        </mxCell>
        <mxCell id="761dnnyQ54j-Cl0NHfQN-39460" value="1" style="rounded=0;whiteSpace=wrap;html=1;fontSize=32;" parent="MUZDcf-XtrYGZtJUf5Co-23" vertex="1">
          <mxGeometry x="850" y="460" width="10" height="10" as="geometry" />
        </mxCell>
        <mxCell id="761dnnyQ54j-Cl0NHfQN-39461" value="13" style="rounded=0;whiteSpace=wrap;html=1;fontSize=32;" parent="MUZDcf-XtrYGZtJUf5Co-23" vertex="1">
          <mxGeometry x="930" y="400" width="130" height="130" as="geometry" />
        </mxCell>
        <mxCell id="761dnnyQ54j-Cl0NHfQN-39462" value="8" style="rounded=0;whiteSpace=wrap;html=1;fontSize=32;" parent="MUZDcf-XtrYGZtJUf5Co-23" vertex="1">
          <mxGeometry x="850" y="380" width="80" height="80" as="geometry" />
        </mxCell>
        <mxCell id="761dnnyQ54j-Cl0NHfQN-39463" value="2" style="rounded=0;whiteSpace=wrap;html=1;fontSize=32;" parent="MUZDcf-XtrYGZtJUf5Co-23" vertex="1">
          <mxGeometry x="930" y="380" width="20" height="20" as="geometry" />
        </mxCell>
        <mxCell id="761dnnyQ54j-Cl0NHfQN-39464" value="40" style="rounded=0;whiteSpace=wrap;html=1;fontSize=32;" parent="MUZDcf-XtrYGZtJUf5Co-23" vertex="1">
          <mxGeometry x="950" width="400" height="400" as="geometry" />
        </mxCell>
        <mxCell id="761dnnyQ54j-Cl0NHfQN-39465" value="38" style="rounded=0;whiteSpace=wrap;html=1;fontSize=32;" parent="MUZDcf-XtrYGZtJUf5Co-23" vertex="1">
          <mxGeometry x="570" width="380" height="380" as="geometry" />
        </mxCell>
      </root>
    </mxGraphModel>
  </diagram>
</mxfile>
